<svg width="90" height="70" viewBox="0 0 90 70" fill="none" xmlns="http://www.w3.org/2000/svg">
<mask id="mask0" mask-type="alpha" maskUnits="userSpaceOnUse" x="0" y="0" width="90" height="70">
<path d="M0 0H90V66C90 68.2091 88.2091 70 86 70H0V0Z" fill="white"/>
</mask>
<g mask="url(#mask0)">
<path fill-rule="evenodd" clip-rule="evenodd" d="M66.0834 43.4965L94.853 34.3348C94.853 34.3348 90.8656 27.4492 85.1873 22.3544C79.5089 17.2597 72.1792 13.9912 72.1792 13.9912L66.0834 43.4965Z" fill="#D2BEE5"/>
<path fill-rule="evenodd" clip-rule="evenodd" d="M66.0834 43.4965L94.853 34.3348C94.853 34.3348 90.8656 27.4492 85.1873 22.3544C79.5089 17.2597 72.1792 13.9912 72.1792 13.9912L66.0834 43.4965Z" fill="#D2BEE5"/>
<path fill-rule="evenodd" clip-rule="evenodd" d="M65.6413 66.9049C71.7338 73.5343 81.8566 73.9649 88.4713 67.7919C95.0568 61.6463 95.7255 51.2324 90.0828 44.2594L90.0467 44.2761C90.0467 44.2761 87.3369 53.7841 81.31 59.4081C75.2831 65.0321 65.651 66.849 65.651 66.849L65.6413 66.9049Z" fill="#2E63B3"/>
<path fill-rule="evenodd" clip-rule="evenodd" d="M30 51C30 51 36.5731 52.4029 42.7171 52.4029C48.8611 52.4029 55 51 55 51C55 51 52.6694 56.6894 52.6694 62.1276C52.6694 67.5658 55 73 55 73C55 73 49.0746 71.9578 42.7171 71.9578C36.3596 71.9578 30 73 30 73C30 73 32.2288 67.6887 32.2288 62.1276C32.2288 56.5665 30 51 30 51Z" fill="#FFD167"/>
<path fill-rule="evenodd" clip-rule="evenodd" d="M49.2171 13.5773L59.4503 23.6377C59.4503 23.6377 56.1542 29.4974 51.0087 34.8645C45.8632 40.2316 39.5993 43.4845 39.5993 43.4845L29.4655 33.5309C29.4655 33.5309 35.8084 29.996 40.7012 24.9479C45.594 19.8998 49.2171 13.5773 49.2171 13.5773Z" fill="#BDD2CE"/>
</g>
</svg>
