<svg width="90" height="70" viewBox="0 0 90 70" fill="none" xmlns="http://www.w3.org/2000/svg">
<mask id="mask0" mask-type="alpha" maskUnits="userSpaceOnUse" x="0" y="0" width="90" height="70">
<path d="M0 0H90V66C90 68.2091 88.2091 70 86 70H0V0Z" fill="white"/>
</mask>
<g mask="url(#mask0)">
<path fill-rule="evenodd" clip-rule="evenodd" d="M68.0756 21.8589C52.6901 21.8589 37 18.0764 37 18.0764C37 18.0764 43.9999 32.4224 43.9999 46.8306C43.9999 61.2389 37 74.6638 37 74.6638C37 74.6638 52.8765 71.2627 68.7969 71.2627C84.7172 71.2627 100 75 100 75C100 75 92.8089 61.1574 92.8089 47.0675C92.8089 32.9777 100 18 100 18C100 18 83.4612 21.8589 68.0756 21.8589ZM87.5155 46.6762C87.5155 57.1569 79.0783 65.6532 68.6706 65.6532C58.2629 65.6532 49.8258 57.1569 49.8258 46.6762C49.8258 36.1955 58.2629 27.6992 68.6706 27.6992C79.0783 27.6992 87.5155 36.1955 87.5155 46.6762Z" fill="#2E63B3"/>
<path fill-rule="evenodd" clip-rule="evenodd" d="M68 59C75.1797 59 81 53.1797 81 46C81 38.8203 75.1797 33 68 33C60.8203 33 55 38.8203 55 46C55 53.1797 60.8203 59 68 59Z" fill="#D2E0F5"/>
</g>
</svg>
