<svg width="90" height="70" viewBox="0 0 90 70" fill="none" xmlns="http://www.w3.org/2000/svg">
<mask id="mask0" mask-type="alpha" maskUnits="userSpaceOnUse" x="0" y="0" width="90" height="70">
<path d="M0 0H90V66C90 68.2091 88.2091 70 86 70H0V0Z" fill="white"/>
</mask>
<g mask="url(#mask0)">
<path fill-rule="evenodd" clip-rule="evenodd" d="M66.5249 76.0002C47.8593 76.0002 32.6509 61.7787 32 43.9995C43.4867 46.7956 54.9848 48.1929 66.4943 48.1929C76.606 48.1929 88.1077 47.1142 101 44.9567C99.8512 62.2857 84.8554 76.0002 66.5249 76.0002Z" fill="#D2BEE5"/>
<path fill-rule="evenodd" clip-rule="evenodd" d="M66.7873 6.00012C66.188 6.00012 65.5922 6.0149 65 6.04375C67.7635 11.3546 69.5918 16.9751 70.4861 22.9045C71.4249 29.1316 71.4694 36.163 70.6188 43.9987C79.9167 43.7461 90.0285 42.5681 100.953 40.4682C100.984 39.9003 101 39.3282 101 38.7533C101 20.6646 85.6824 6.00012 66.7873 6.00012Z" fill="#FFD167"/>
</g>
</svg>
