<svg width="1054" height="286" viewBox="0 0 1054 286" fill="none" xmlns="http://www.w3.org/2000/svg">
    <path fill-rule="evenodd" clip-rule="evenodd" d="M0.583692 15.0001L1054 0.710449L1041.33 286H0L0.583692 15.0001Z" fill="#D2BEE5"/>
    <mask id="mask0" maskUnits="userSpaceOnUse" x="0" y="0" width="1054" height="286">
        <path fill-rule="evenodd" clip-rule="evenodd" d="M0.583692 15.0001L1054 0.710449L1041.33 286H0L0.583692 15.0001Z" fill="white"/>
    </mask>
    <g mask="url(#mask0)">
        <path fill-rule="evenodd" clip-rule="evenodd" d="M288.588 287.667L294.706 357.59C294.706 357.59 267.807 364.725 237.148 359.166C206.489 353.606 178.426 336.505 178.426 336.505L172.141 264.668C172.141 264.668 203.543 282.966 230.955 288.38C258.367 293.794 288.588 287.667 288.588 287.667Z" fill="#2E63B3"/>
        <path fill-rule="evenodd" clip-rule="evenodd" d="M395.044 -83H505V74H477.898V5.16832C477.898 5.16832 473.441 6.28762 465.91 7.7709C465.97 6.65974 466 5.54128 466 4.41617C466 -30.9961 436.105 -59.8362 398.774 -60.9657C399.808 -63.0248 400.47 -64.1845 400.47 -64.1845L395.044 -83Z" fill="#FFD167"/>
        <path fill-rule="evenodd" clip-rule="evenodd" d="M863.114 -62L902 -42.5889C902 -42.5889 898.014 -22.6605 888.243 -2.42684C878.472 17.8068 863.5 33 863.5 33L825 13.8034C825 13.8034 839.935 -2.27454 849.278 -21.3551C858.621 -40.4356 863.114 -62 863.114 -62Z" fill="#FFD167"/>
    </g>
</svg>
