<svg width="90" height="70" viewBox="0 0 90 70" fill="none" xmlns="http://www.w3.org/2000/svg">
<g id="icon covid">
<mask id="mask0" mask-type="alpha" maskUnits="userSpaceOnUse" x="0" y="0" width="90" height="70">
<path id="Mask" d="M0 0H90V66C90 68.2091 88.2091 70 86 70H0V0Z" fill="white"/>
</mask>
<g mask="url(#mask0)">
<g id="Artboard (4)">
<path id="Oval-Copy-7" d="M61.6384 62.8351C72.8032 62.8351 81.854 53.7843 81.854 42.6195C81.854 31.4548 72.8032 22.4039 61.6384 22.4039C50.4737 22.4039 41.4229 31.4548 41.4229 42.6195C41.4229 53.7843 50.4737 62.8351 61.6384 62.8351Z" fill="#3C6238"/>
<g id="Group">
<path id="Path-117" d="M56.0879 9.49739C57.7293 8.4911 59.3708 7.98795 61.0122 7.98795C62.6536 7.98795 64.2951 8.4911 65.9365 9.49739L61.0122 20.8433L56.0879 9.49739Z" fill="#3C6238"/>
<path id="Path-117-Copy-3" d="M56.0879 74.8574C57.7293 75.5607 59.3708 75.9124 61.0122 75.9124C62.6536 75.9124 64.2951 75.5607 65.9365 74.8574L61.0122 63.5115L56.0879 74.8574Z" fill="#3C6238"/>
</g>
<g id="Group_2">
<path id="Path-117_2" d="M91.3208 27.4187C92.8442 28.6675 93.8587 30.0698 94.3642 31.6258C94.8698 33.1817 94.8698 34.9016 94.3642 36.7853L82.052 35.6081L91.3208 27.4187Z" fill="#D2BEE5"/>
<path id="Path-117-Copy-3_2" d="M29.1596 47.6161C28.6203 49.1777 28.6203 50.7885 29.1596 52.4484C29.699 54.1082 30.7134 55.6197 32.203 56.9826L41.4719 48.7933L29.1596 47.6161Z" fill="#D2BEE5"/>
</g>
<path id="Path-117-Copy" d="M99.4497 60.4004C98.8632 63.5609 97.6734 66.2482 95.8805 68.4623C94.0876 70.6763 91.6987 72.4082 88.714 73.6578L78.8089 54.6613L99.4497 60.4004Z" fill="#D2BEE5"/>
<path id="Path-117-Copy-2" d="M35.8601 10.8512C32.5561 12.1391 29.988 13.8005 28.1557 15.8354C26.3235 17.8703 25.0867 20.4347 24.4453 23.5286L44.7574 30.3401L35.8601 10.8512Z" fill="#D2BEE5"/>
</g>
</g>
</g>
</svg>
