<svg width="90" height="70" viewBox="0 0 90 70" fill="none" xmlns="http://www.w3.org/2000/svg">
<g id="icon &#208;&#190;&#209;&#129;&#208;&#178;&#209;&#150;&#209;&#130;&#208;&#176;">
<mask id="mask0" mask-type="alpha" maskUnits="userSpaceOnUse" x="0" y="0" width="90" height="70">
<path id="Mask" d="M0 0H90V66C90 68.2091 88.2091 70 86 70H0V0Z" fill="white"/>
</mask>
<g mask="url(#mask0)">
<g id="icon &#208;&#190;&#209;&#129;&#208;&#178;&#209;&#150;&#209;&#130;&#208;&#176;_2">
<path id="Fill 4" fill-rule="evenodd" clip-rule="evenodd" d="M77.1294 79.8282C77.9294 78.7067 78.808 77.5749 79.7388 76.4341C89.1204 63.5235 94 47.7148 94 30.6282C94 27.7116 93.8334 24.834 93.5197 22H58.5204C58.8341 24.834 59.0001 27.7116 59.0001 30.6282C59.0001 49.3196 53.0394 66.4882 42 80L77.1294 79.8282Z" fill="#BDD2CE"/>
<path id="Fill 1" fill-rule="evenodd" clip-rule="evenodd" d="M57 30.6282C57 27.7116 56.8333 24.834 56.5201 22H21.065C21.3346 24.4347 21.4902 26.9034 21.5286 29.4003C21.6953 33.798 21.3528 38.1253 20.6476 42.4519C20.1924 45.4288 19.5647 48.3493 18.7814 51.207L18.7729 51.2423C18.7592 51.2948 18.7423 51.348 18.7286 51.4006C18.6362 51.7332 18.5456 52.0658 18.4493 52.3965C16.5752 59.1649 13.5564 65.9864 9.20994 72.8125C8.19023 74.4141 6.45358 76.8097 4 80H39.332C50.3803 66.4882 57 49.3959 57 30.7019V30.6282Z" fill="#2E63B3"/>
</g>
</g>
</g>
</svg>
